<?xml version="1.0" encoding="utf-8"?>
<!-- Generator: Adobe Illustrator 22.0.1, SVG Export Plug-In . SVG Version: 6.00 Build 0)  -->
<svg version="1.1" xmlns="http://www.w3.org/2000/svg" xmlns:xlink="http://www.w3.org/1999/xlink" x="0px" y="0px"
	 enable-background="new 0 0 76 42.8" viewBox="-20 0 120 42.3"  width="200" height="100"  xml:space="preserve">
<g id="accessibility_x5F_icon" display="none">
	<g id="background_x5F_bars" display="inline">
		
			<line fill="none" stroke="#D7F6FC" stroke-width="7" stroke-linecap="round" stroke-miterlimit="10" x1="12.5" y1="1.8" x2="85" y2="1.8"/>
		
			<line fill="none" stroke="#D7F6FC" stroke-width="7" stroke-linecap="round" stroke-miterlimit="10" x1="-7.5" y1="22.8" x2="65" y2="22.8"/>
		
			<line fill="none" stroke="#D7F6FC" stroke-width="7" stroke-linecap="round" stroke-miterlimit="10" x1="4.5" y1="36.8" x2="77" y2="36.8"/>
	</g>
	<g id="circles" display="inline">
		<circle fill="#FFD8E6" cx="1.5" cy="5.8" r="1.5"/>
		<circle fill="#15CDFF" cx="-4" cy="15.3" r="1"/>
		<circle fill="#FFCF66" cx="79.5" cy="17.8" r="1.5"/>
	</g>
	<g id="desktop" display="inline">
		<path fill="#FFFFFF" stroke="#002C47" stroke-miterlimit="10" d="M56.3,33.9h-45c-0.6,0-1-0.5-1-1V-0.5c0-0.6,0.4-1,1-1h45
			c0.5,0,1,0.4,1,1v33.4C57.3,33.5,56.8,33.9,56.3,33.9z"/>
		<path fill="#002C47" stroke="#002C47" stroke-miterlimit="10" d="M52.6,38.5H15.1c-0.5,0-1-0.4-1-1v-0.1c0-0.5,0.4-1,1-1h37.5
			c0.5,0,1,0.5,1,1v0.1C53.6,38.1,53.1,38.5,52.6,38.5z"/>
		<line fill="none" stroke="#002C47" stroke-miterlimit="10" x1="10.3" y1="27.3" x2="57.3" y2="27.3"/>
		<path fill="none" stroke="#002C47" stroke-miterlimit="10" d="M36.1,4.5H13.5c-0.6,0-1-0.4-1-1V2.9c0-0.6,0.4-1,1-1h22.6
			c0.6,0,1,0.4,1,1v0.5C37.1,4,36.6,4.5,36.1,4.5z"/>
		<circle fill="#002C47" stroke="#002C47" stroke-width="0.5" stroke-miterlimit="10" cx="17.9" cy="3.2" r="0.3"/>
		<circle fill="#002C47" stroke="#002C47" stroke-width="0.5" stroke-miterlimit="10" cx="16.1" cy="3.2" r="0.3"/>
		<circle fill="#002C47" stroke="#002C47" stroke-width="0.5" stroke-miterlimit="10" cx="14.2" cy="3.2" r="0.3"/>
		<path fill="none" stroke="#002C47" stroke-miterlimit="10" d="M31.8,23.2H13.7c-0.7,0-1.2-0.7-1.2-1.5V3"/>
		<line fill="none" stroke="#002C47" stroke-width="0.75" stroke-miterlimit="10" x1="37.1" y1="3.3" x2="37" y2="6.8"/>
		<rect x="15.1" y="8.2" fill="#15CDFF" width="15.1" height="0.8"/>
		<rect x="15.1" y="12.4" fill="#15CDFF" width="15.1" height="0.8"/>
		<rect x="15.1" y="16.6" fill="#15CDFF" width="15.1" height="0.8"/>
		<path fill="none" stroke="#002C47" stroke-miterlimit="10" d="M55,9.5v14.5c0,0.7-0.5,1.3-1.1,1.3H33.2c-0.6,0-1.1-0.6-1.1-1.3V8"
			/>
		<path fill="none" stroke="#002C47" stroke-miterlimit="10" d="M54.3,9.5H33c-0.6,0-1-0.4-1-1v-1c0-0.6,0.4-1,1-1h21.3
			c0.5,0,1,0.4,1,1v1C55.3,9.1,54.9,9.5,54.3,9.5z"/>
		<circle stroke="#002C47" stroke-width="0.5" stroke-miterlimit="10" cx="33.9" cy="8" r="0.3"/>
		<circle stroke="#002C47" stroke-width="0.5" stroke-miterlimit="10" cx="36.7" cy="8" r="0.3"/>
		<circle stroke="#002C47" stroke-width="0.5" stroke-miterlimit="10" cx="35.3" cy="8" r="0.3"/>
		<polyline fill="none" stroke="#15CDFF" stroke-miterlimit="10" points="35.4,16.7 37.7,15.2 35.4,13.7 		"/>
		<rect x="40.3" y="17.3" fill="none" stroke="#15CDFF" stroke-miterlimit="10" width="2.3" height="0.4"/>
	</g>
	<g id="mobile" display="inline">
		<path fill="#FFFFFF" stroke="#002C47" stroke-miterlimit="10" d="M72.4,39.8h-10c-1.1,0-2-0.9-2-2v-23c0-1.1,0.9-2,2-2h10
			c1.1,0,2,0.9,2,2v23C74.4,38.9,73.5,39.8,72.4,39.8z"/>
		<line fill="none" stroke="#002C47" stroke-miterlimit="10" x1="60.3" y1="16.8" x2="74.5" y2="16.8"/>
		<line fill="none" stroke="#002C47" stroke-width="0.5" stroke-miterlimit="10" x1="65.7" y1="14.8" x2="69.2" y2="14.8"/>
		<line fill="none" stroke="#002C47" stroke-miterlimit="10" x1="60.3" y1="34.8" x2="74.5" y2="34.8"/>
		<circle fill="none" stroke="#002C47" stroke-width="0.5" stroke-miterlimit="10" cx="67.4" cy="37.8" r="1"/>
		<rect x="63.1" y="25.3" fill="#15CDFF" width="8.9" height="0.5"/>
		<rect x="63.1" y="28.1" fill="#15CDFF" width="8.9" height="0.5"/>
		<rect x="63.1" y="30.9" fill="#15CDFF" width="8.9" height="0.5"/>
		<circle fill="#15CDFF" cx="69" cy="21.3" r="2.5"/>
	</g>
</g>
<g id="efficiency_x5F_icon" display="none">
	<g id="background_x5F_bars_1_" display="inline">
		
			<line fill="none" stroke="#D7F6FC" stroke-width="5" stroke-linecap="round" stroke-miterlimit="10" x1="22" y1="1.8" x2="74" y2="1.8"/>
		
			<line fill="none" stroke="#D7F6FC" stroke-width="5" stroke-linecap="round" stroke-miterlimit="10" x1="25.5" y1="21.8" x2="39.5" y2="21.8"/>
		
			<line fill="none" stroke="#D7F6FC" stroke-width="5" stroke-linecap="round" stroke-miterlimit="10" x1="2" y1="12.7" x2="39" y2="12.7"/>
	</g>
	<g id="circles_1_" display="inline">
		<circle fill="#FFD8E6" cx="63" cy="21.3" r="1"/>
		<circle fill="#15CDFF" cx="68.5" cy="8.8" r="1.5"/>
		<circle fill="#FFCF66" cx="18.5" cy="20.8" r="1.5"/>
	</g>
	<g id="faucet" display="inline">
		<line fill="none" stroke="#002C47" stroke-miterlimit="10" x1="48.7" y1="-5.2" x2="61.5" y2="-5.2"/>
		<line fill="none" stroke="#002C47" stroke-miterlimit="10" x1="55.1" y1="-5.1" x2="55.1" y2="0.3"/>
		<path fill="#FFFFFF" stroke="#002C47" stroke-miterlimit="10" d="M67.3,5.3H42.9c-0.9,0-1.7-0.8-1.7-1.7V0.8
			c0-0.9,0.8-1.7,1.7-1.7h24.4c0.9,0,1.7,0.8,1.7,1.7v2.8C69,4.6,68.2,5.3,67.3,5.3z"/>
		<path fill="#FFFFFF" stroke="#002C47" stroke-miterlimit="10" d="M58.8,13.9h-7.4c-0.6,0-1.1-0.5-1.1-1.1V2.5
			c0-0.6,0.5-1.1,1.1-1.1h7.4c0.6,0,1.1,0.5,1.1,1.1v10.2C59.9,13.3,59.4,13.9,58.8,13.9z"/>
		<path fill="#FFFFFF" stroke="#002C47" stroke-miterlimit="10" d="M62.3,14.6c0,0,1.1-4.1-1.1-5.1L49,9.5c-2.2,1-1.1,5.1-1.1,5.1
			L62.3,14.6L62.3,14.6z"/>
		<line fill="none" stroke="#15CDFF" stroke-width="0.5" stroke-miterlimit="10" x1="51.2" y1="30.9" x2="51.2" y2="17"/>
		<line fill="none" stroke="#15CDFF" stroke-width="0.5" stroke-miterlimit="10" x1="55" y1="17" x2="55" y2="35.3"/>
		<line fill="none" stroke="#15CDFF" stroke-width="0.5" stroke-miterlimit="10" x1="58.8" y1="17" x2="58.8" y2="43.7"/>
		<circle fill="#FFFFFF" stroke="#15CDFF" stroke-miterlimit="10" cx="51.2" cy="31.1" r="1.7"/>
		<circle fill="#FFFFFF" stroke="#15CDFF" stroke-miterlimit="10" cx="55" cy="36" r="1.7"/>
		<circle fill="#FFFFFF" stroke="#15CDFF" stroke-miterlimit="10" cx="55" cy="23.6" r="1.7"/>
		<circle fill="#FFFFFF" stroke="#15CDFF" stroke-miterlimit="10" cx="58.8" cy="42.6" r="1.7"/>
		<circle fill="#FFFFFF" stroke="#15CDFF" stroke-miterlimit="10" cx="58.8" cy="29.2" r="1.7"/>
	</g>
</g>
<g id="reproducibility_x5F_icon">
	<g id="background_x5F_bars_2_">
		
			<line fill="none" stroke="#D7F6FC" stroke-width="5" stroke-linecap="round" stroke-miterlimit="10" x1="22.5" y1="24.8" x2="73.5" y2="24.8"/>
		
			<line fill="none" stroke="#D7F6FC" stroke-width="5" stroke-linecap="round" stroke-miterlimit="10" x1="7.5" y1="31.8" x2="67" y2="31.8"/>
		
			<line fill="none" stroke="#D7F6FC" stroke-width="5" stroke-linecap="round" stroke-miterlimit="10" x1="2.5" y1="5.8" x2="39.5" y2="5.8"/>
	</g>
	<g id="circles_2_">
		<circle fill="#FFD8E6" cx="73" cy="31.3" r="1"/>
		<circle fill="#15CDFF" cx="17.5" cy="16.8" r="1.5"/>
		<circle fill="#FFCF66" cx="53" cy="16.3" r="1"/>
	</g>
	<g id="clipboard">
		<path fill="#0DCBFF" stroke="#08324D" stroke-miterlimit="10" d="M48,37.5H22.6c-0.3,0-0.6-0.3-0.6-0.6V4.8c0-0.3,0.3-0.6,0.6-0.6
			H48c0.3,0,0.6,0.3,0.6,0.6v32.1C48.6,37.2,48.3,37.5,48,37.5z"/>
		<rect x="23.6" y="5.6" fill="#FFFFFF" stroke="#08324D" stroke-width="0.5" stroke-miterlimit="10" width="23.3" height="30.3"/>
		<path fill="#FFFFFF" stroke="#08324D" stroke-width="0.5" stroke-miterlimit="10" d="M37.5,3.7h2.5c3.4,0.6,3.1,3.5,3.1,3.5
			c-0.6,0-15.8,0-15.8,0s-0.3-2.9,3.1-3.5H33V3.1c0-1.4,1-2.6,2.3-2.6c1.3,0,2.3,1.2,2.3,2.6V3.7z"/>
		<line fill="none" stroke="#0ACBFF" stroke-miterlimit="10" x1="26.9" y1="31.7" x2="43.7" y2="31.7"/>
		<line fill="none" stroke="#0ACBFF" stroke-miterlimit="10" x1="26.9" y1="23.9" x2="43.7" y2="23.9"/>
		<line fill="none" stroke="#0ACBFF" stroke-miterlimit="10" x1="26.9" y1="27.8" x2="43.7" y2="27.8"/>
		<line fill="none" stroke="#0ACBFF" stroke-miterlimit="10" x1="26.9" y1="16.1" x2="43.7" y2="16.1"/>
		<line fill="none" stroke="#0ACBFF" stroke-miterlimit="10" x1="26.9" y1="20" x2="43.7" y2="20"/>
		<line fill="none" stroke="#0ACBFF" stroke-miterlimit="10" x1="26.9" y1="12.2" x2="43.7" y2="12.2"/>
		<polyline fill="#0DCBFF" stroke="#08324D" stroke-linecap="round" stroke-linejoin="round" stroke-miterlimit="10" points="
			40.5,34 36.8,39.9 40.3,39 41.2,42.3 44.5,36.2 		"/>
		<polyline fill="#0DCBFF" stroke="#08324D" stroke-linecap="round" stroke-linejoin="round" stroke-miterlimit="10" points="
			49.7,34.3 53.4,39.9 49.9,39 49,42.3 45.7,36.2 		"/>
		<polygon fill="#0DCBFF" stroke="#08324D" stroke-linecap="round" stroke-linejoin="round" stroke-miterlimit="10" points="
			48.4,22.9 46.8,23.3 45.4,22.2 44,23.3 42.2,22.9 41.5,24.3 39.8,24.8 39.9,26.8 38.5,27.7 39.2,29.2 38.5,30.8 39.8,32 
			39.8,33.8 41.4,34.2 42.2,35.8 43.8,35.5 45.3,36.4 46.6,35.4 48.3,35.8 49.2,34.2 51,33.9 51,32.3 52.4,31.2 51.5,29.4 
			52.4,27.9 51.1,26.9 51.1,25.1 49.4,24.6 		"/>
		
			<circle fill="#FFFFFF" stroke="#08324D" stroke-width="0.5" stroke-linecap="round" stroke-linejoin="round" stroke-miterlimit="10" cx="45.4" cy="29.3" r="3.5"/>
		<polyline fill="none" stroke="#0DCBFF" stroke-linecap="round" stroke-linejoin="round" stroke-miterlimit="10" points="
			43.7,29.9 44.7,31 46.9,28.3 		"/>
	</g>
</g>
</svg>
