<?xml version="1.0" encoding="utf-8"?>
<!-- Generator: Adobe Illustrator 22.0.1, SVG Export Plug-In . SVG Version: 6.00 Build 0)  -->
<svg version="1.1" xmlns="http://www.w3.org/2000/svg" xmlns:xlink="http://www.w3.org/1999/xlink" x="0px" y="0px"
	 viewBox="0 0 564 562" enable-background="new 0 0 564 562" width="200" height="100" xml:space="preserve"
	 role="img" aria-labelledby="title  desc">
	 <title id="title">User Icon</title>
  	 <desc id="desc">Cbrain website user icon.</desc>
	<g id="user">
		<g id="Layer_13">
			<path fill="#B4E2F0" stroke="#B4E2F0" stroke-width="6" stroke-miterlimit="10" d="M557,245H441c-1.6,0-3,1.4-3,3l0,0
				c0,1.6,1.4,3,3,3h116c1.7,0,3-1.4,3-3l0,0C560,246.4,558.7,245,557,245z"/>
			<path fill="#B4E2F0" stroke="#B4E2F0" stroke-width="6" stroke-miterlimit="10" d="M102.5,179h-94c-1.9,0-3.5-1.6-3.5-3.5l0,0
				c0-1.9,1.6-3.5,3.5-3.5h94c1.9,0,3.5,1.6,3.5,3.5l0,0C106,177.4,104.4,179,102.5,179z"/>
			<path fill="#B4E2F0" stroke="#B4E2F0" stroke-width="6" stroke-miterlimit="10" d="M157,435H41c-1.6,0-3,1.4-3,3l0,0
				c0,1.6,1.3,3,3,3h116c1.6,0,3-1.4,3-3l0,0C160,436.4,158.6,435,157,435z"/>
			<path fill="#B4E2F0" stroke="#B4E2F0" stroke-width="6" stroke-miterlimit="10" d="M208.5,373h-94c-1.9,0-3.5-1.6-3.5-3.5l0,0
				c0-1.9,1.6-3.5,3.5-3.5h94c1.9,0,3.5,1.6,3.5,3.5l0,0C212,371.4,210.4,373,208.5,373z"/>
			<circle fill="none" stroke="#B4E2F0" stroke-width="6" stroke-miterlimit="10" cx="97" cy="246" r="12"/>
			<circle fill="none" stroke="#B4E2F0" stroke-width="6" stroke-miterlimit="10" cx="461" cy="122" r="12"/>
			<circle fill="none" stroke="#B4E2F0" stroke-width="6" stroke-miterlimit="10" cx="483" cy="375" r="12"/>
		</g>
	<g id="Layer_10">
		<g>
			<path fill="#FFFFFF" d="M152,415.5c-6.3,0-11.5-5.2-11.5-11.5V148c0-6.3,5.2-11.5,11.5-11.5h254c6.3,0,11.5,5.2,11.5,11.5v256
				c0,6.3-5.2,11.5-11.5,11.5H152z"/>
			<path fill="#FFFFFF" d="M406,137c6.1,0,11,4.9,11,11v256c0,6.1-4.9,11-11,11H152c-6.1,0-11-4.9-11-11V148c0-6.1,4.9-11,11-11H406
				 M406,136H152c-6.6,0-12,5.4-12,12v256c0,6.6,5.4,12,12,12h254c6.6,0,12-5.4,12-12V148C418,141.4,412.6,136,406,136L406,136z"/>
		</g>
	</g>
	<g id="login">
		<g opacity="0.3">
			<path fill="#05A0D3" d="M161,425.7c-6.9,0-12.5-5.6-12.5-12.5V158c0-6.9,5.6-12.5,12.5-12.5h255.2c6.9,0,12.5,5.6,12.5,12.5
				v255.2c0,6.9-5.6,12.5-12.5,12.5H161z"/>
			<g>
				<path fill="#05A0D3" d="M416.2,146c6.6,0,12,5.4,12,12v255.2c0,6.6-5.4,12-12,12H161c-6.6,0-12-5.4-12-12V158
					c0-6.6,5.4-12,12-12H416.2 M416.2,145H161c-7.1,0-13,5.8-13,13v255.2c0,7.1,5.8,13,13,13h255.2c7.1,0,13-5.8,13-13V158
					C429.2,150.9,423.4,145,416.2,145L416.2,145z"/>
			</g>
		</g>
		<path fill="none" stroke="#002C47" stroke-width="7" stroke-miterlimit="10" d="M419.7,368.1v35.7c0,7.1-5.8,13-13,13h-36.1"/>
		<path fill="none" stroke="#002C47" stroke-width="7" stroke-miterlimit="10" d="M325.6,416.7H151.5c-7.1,0-13-5.8-13-13V148.6
			c0-7.1,5.8-13,13-13h255.2c7.1,0,13,5.8,13,13v161"/>

			<line opacity="0.28" fill="#FFFFFF" stroke="#FFFFFF" stroke-width="7" stroke-miterlimit="10" x1="183.4" y1="328.7" x2="332.2" y2="329.3"/>

			<line opacity="0.28" fill="#FFFFFF" stroke="#FFFFFF" stroke-width="7" stroke-miterlimit="10" x1="183.4" y1="300.5" x2="231.7" y2="300.7"/>

			<line opacity="0.28" fill="#FFFFFF" stroke="#FFFFFF" stroke-width="7" stroke-miterlimit="10" x1="183.4" y1="385.9" x2="199.1" y2="385.9"/>

			<line opacity="0.28" fill="#FFFFFF" stroke="#FFFFFF" stroke-width="7" stroke-miterlimit="10" x1="209.3" y1="385.9" x2="225" y2="385.9"/>

			<line opacity="0.28" fill="#FFFFFF" stroke="#FFFFFF" stroke-width="7" stroke-miterlimit="10" x1="235.2" y1="385.9" x2="250.9" y2="385.9"/>

			<line opacity="0.28" fill="#FFFFFF" stroke="#FFFFFF" stroke-width="7" stroke-miterlimit="10" x1="261.2" y1="385.9" x2="276.9" y2="385.9"/>

			<line opacity="0.28" fill="#FFFFFF" stroke="#FFFFFF" stroke-width="7" stroke-miterlimit="10" x1="287.1" y1="385.9" x2="302.8" y2="385.9"/>

			<line opacity="0.28" fill="#FFFFFF" stroke="#FFFFFF" stroke-width="7" stroke-miterlimit="10" x1="313" y1="385.9" x2="328.7" y2="385.9"/>

			<line opacity="0.28" fill="#FFFFFF" stroke="#FFFFFF" stroke-width="7" stroke-miterlimit="10" x1="183.4" y1="357.3" x2="231.7" y2="357.6"/>
		<circle fill="#FFFFFF" cx="286.6" cy="225.6" r="55.5"/>
		<circle fill="none" stroke="#002C47" stroke-width="7" stroke-miterlimit="10" cx="279.1" cy="217.7" r="55.5"/>
		<path fill="none" stroke="#002C47" stroke-width="7" stroke-miterlimit="10" d="M238.1,255.5c6.7-18.6,22.5-31.7,40.9-31.7
			s34.2,13.1,40.9,31.7"/>
		<circle fill="none" stroke="#002C47" stroke-width="7" stroke-miterlimit="10" cx="279.1" cy="202.9" r="18.5"/>

			<line opacity="0.28" fill="#FFFFFF" stroke="#002C47" stroke-width="7" stroke-miterlimit="10" x1="176.4" y1="323.7" x2="325.2" y2="324.3"/>

			<line opacity="0.28" fill="#FFFFFF" stroke="#002C47" stroke-width="7" stroke-miterlimit="10" x1="176.4" y1="295.5" x2="224.7" y2="295.7"/>

			<line opacity="0.28" fill="#FFFFFF" stroke="#002C47" stroke-width="7" stroke-miterlimit="10" x1="176.4" y1="380.9" x2="192.1" y2="380.9"/>

			<line opacity="0.28" fill="#FFFFFF" stroke="#002C47" stroke-width="7" stroke-miterlimit="10" x1="202.3" y1="380.9" x2="218" y2="380.9"/>

			<line opacity="0.28" fill="#FFFFFF" stroke="#002C47" stroke-width="7" stroke-miterlimit="10" x1="228.2" y1="380.9" x2="243.9" y2="380.9"/>

			<line opacity="0.28" fill="#FFFFFF" stroke="#002C47" stroke-width="7" stroke-miterlimit="10" x1="254.2" y1="380.9" x2="269.9" y2="380.9"/>

			<line opacity="0.28" fill="#FFFFFF" stroke="#002C47" stroke-width="7" stroke-miterlimit="10" x1="280.1" y1="380.9" x2="295.8" y2="380.9"/>

			<line opacity="0.28" fill="#FFFFFF" stroke="#002C47" stroke-width="7" stroke-miterlimit="10" x1="306" y1="380.9" x2="321.7" y2="380.9"/>

			<line opacity="0.28" fill="#FFFFFF" stroke="#002C47" stroke-width="7" stroke-miterlimit="10" x1="176.4" y1="352.3" x2="224.7" y2="352.6"/>
	</g>
	<g id="pen_copy">
		<path fill="#FFFFFF" d="M453.9,334.5l-14.2-14.1c-4.1-4.1-10.8-4-14.8,0.1l-9.1,9.2l-0.9-0.9c-2.4-2.4-6.2-2.4-8.6,0v0
			c-2.2,2.2-2.3,5.7-0.4,8.1l-0.3-0.3l-68.5,68.5l-9.3,41.8c0,0,26.3-6.6,39.5-9.3l68.5-68.5l-28.8-31l30.4,30.4
			c2.4,2.4,6.2,2.4,8.6,0h0c2.4-2.4,2.4-6.2,0-8.6l-1.3-1.3l9.2-9.4C458,345.2,458,338.6,453.9,334.5z"/>
	</g>
	<g id="pen">
		<path fill="none" stroke="#002C47" stroke-width="7" stroke-miterlimit="10" d="M408.3,320.2l9.6-9.7c4.1-4.1,10.7-4.1,14.8-0.1
			l14.2,14.1c4.1,4.1,4.1,10.7,0.1,14.8l-10.7,10.8"/>
		<path fill="none" stroke="#002C47" stroke-width="7" stroke-miterlimit="10" d="M398.6,326.7l-68.5,68.5l-9.3,41.8
			c0,0,26.3-6.6,39.5-9.3l68.5-68.5"/>
		<path fill="none" stroke="#002C47" stroke-width="7" stroke-miterlimit="10" d="M430.5,358.6l-31.2-31.2c-2.4-2.4-2.4-6.2,0-8.6v0
			c2.4-2.4,6.2-2.4,8.6,0l31.2,31.2c2.4,2.4,2.4,6.2,0,8.6l0,0C436.7,361,432.8,361,430.5,358.6z"/>
		<path fill="none" stroke="#002C47" stroke-width="7" stroke-miterlimit="10" d="M330.1,395.2c0,0,25.6,11.6,31.4,31.4"/>
		<path fill="none" stroke="#002C47" stroke-width="7" stroke-miterlimit="10" d="M323.7,425.8c0,0,2,8.4,8.4,8.4"/>
	</g>
</g>

</svg>
