<?xml version="1.0" encoding="utf-8"?>
<!-- Generator: Adobe Illustrator 22.0.1, SVG Export Plug-In . SVG Version: 6.00 Build 0)  -->
<svg version="1.1" xmlns="http://www.w3.org/2000/svg" xmlns:xlink="http://www.w3.org/1999/xlink" x="0px" y="0px"
	 enable-background="new 0 0 76 42.8" viewBox="-20 0 120 42.3"  width="200" height="100"  xml:space="preserve"
	 role="img" aria-labelledby="title  desc">
	<title id="title">Reproducibility</title>
  	 <desc id="desc">Cbrain website reproducibility icon.</desc>

<g id="reproducibility">
	<g id="background_x5F_bars_2_">

			<line fill="none" stroke="#D7F6FC" stroke-width="5" stroke-linecap="round" stroke-miterlimit="10" x1="22.5" y1="24.8" x2="73.5" y2="24.8"/>

			<line fill="none" stroke="#D7F6FC" stroke-width="5" stroke-linecap="round" stroke-miterlimit="10" x1="7.5" y1="31.8" x2="67" y2="31.8"/>

			<line fill="none" stroke="#D7F6FC" stroke-width="5" stroke-linecap="round" stroke-miterlimit="10" x1="2.5" y1="5.8" x2="39.5" y2="5.8"/>
	</g>
	<g id="circles_2_">
		<circle fill="#FFD8E6" cx="73" cy="31.3" r="1"/>
		<circle fill="#15CDFF" cx="17.5" cy="16.8" r="1.5"/>
		<circle fill="#FFCF66" cx="53" cy="16.3" r="1"/>
	</g>
	<g id="clipboard">
		<path fill="#0DCBFF" stroke="#08324D" stroke-miterlimit="10" d="M48,37.5H22.6c-0.3,0-0.6-0.3-0.6-0.6V4.8c0-0.3,0.3-0.6,0.6-0.6
			H48c0.3,0,0.6,0.3,0.6,0.6v32.1C48.6,37.2,48.3,37.5,48,37.5z"/>
		<rect x="23.6" y="5.6" fill="#FFFFFF" stroke="#08324D" stroke-width="0.5" stroke-miterlimit="10" width="23.3" height="30.3"/>
		<path fill="#FFFFFF" stroke="#08324D" stroke-width="0.5" stroke-miterlimit="10" d="M37.5,3.7h2.5c3.4,0.6,3.1,3.5,3.1,3.5
			c-0.6,0-15.8,0-15.8,0s-0.3-2.9,3.1-3.5H33V3.1c0-1.4,1-2.6,2.3-2.6c1.3,0,2.3,1.2,2.3,2.6V3.7z"/>
		<line fill="none" stroke="#0ACBFF" stroke-miterlimit="10" x1="26.9" y1="31.7" x2="43.7" y2="31.7"/>
		<line fill="none" stroke="#0ACBFF" stroke-miterlimit="10" x1="26.9" y1="23.9" x2="43.7" y2="23.9"/>
		<line fill="none" stroke="#0ACBFF" stroke-miterlimit="10" x1="26.9" y1="27.8" x2="43.7" y2="27.8"/>
		<line fill="none" stroke="#0ACBFF" stroke-miterlimit="10" x1="26.9" y1="16.1" x2="43.7" y2="16.1"/>
		<line fill="none" stroke="#0ACBFF" stroke-miterlimit="10" x1="26.9" y1="20" x2="43.7" y2="20"/>
		<line fill="none" stroke="#0ACBFF" stroke-miterlimit="10" x1="26.9" y1="12.2" x2="43.7" y2="12.2"/>
		<polyline fill="#0DCBFF" stroke="#08324D" stroke-linecap="round" stroke-linejoin="round" stroke-miterlimit="10" points="
			40.5,34 36.8,39.9 40.3,39 41.2,42.3 44.5,36.2 		"/>
		<polyline fill="#0DCBFF" stroke="#08324D" stroke-linecap="round" stroke-linejoin="round" stroke-miterlimit="10" points="
			49.7,34.3 53.4,39.9 49.9,39 49,42.3 45.7,36.2 		"/>
		<polygon fill="#0DCBFF" stroke="#08324D" stroke-linecap="round" stroke-linejoin="round" stroke-miterlimit="10" points="
			48.4,22.9 46.8,23.3 45.4,22.2 44,23.3 42.2,22.9 41.5,24.3 39.8,24.8 39.9,26.8 38.5,27.7 39.2,29.2 38.5,30.8 39.8,32
			39.8,33.8 41.4,34.2 42.2,35.8 43.8,35.5 45.3,36.4 46.6,35.4 48.3,35.8 49.2,34.2 51,33.9 51,32.3 52.4,31.2 51.5,29.4
			52.4,27.9 51.1,26.9 51.1,25.1 49.4,24.6 		"/>

			<circle fill="#FFFFFF" stroke="#08324D" stroke-width="0.5" stroke-linecap="round" stroke-linejoin="round" stroke-miterlimit="10" cx="45.4" cy="29.3" r="3.5"/>
		<polyline fill="none" stroke="#0DCBFF" stroke-linecap="round" stroke-linejoin="round" stroke-miterlimit="10" points="
			43.7,29.9 44.7,31 46.9,28.3 		"/>
	</g>
</g>
</svg>
