<?xml version="1.0" encoding="utf-8"?>
<!-- Generator: Adobe Illustrator 22.0.1, SVG Export Plug-In . SVG Version: 6.00 Build 0)  -->
<svg version="1.1" xmlns="http://www.w3.org/2000/svg" xmlns:xlink="http://www.w3.org/1999/xlink" x="0px" y="0px"
	 viewBox="0 0 564 562" enable-background="new 0 0 564 562" width="200" height="100" xml:space="preserve" role="img" aria-labelledby="title  desc">
	 <title id="title">Documentation Icon</title>
  	 <desc id="desc">Cbrain website documentation icon.</desc>
<g id="user_x5F_02">
	<g id="background">
		<circle fill="none" stroke="#B4E2F0" stroke-width="5" stroke-miterlimit="10" cx="54.8" cy="279.8" r="7.3"/>
		<circle fill="none" stroke="#B4E2F0" stroke-width="5" stroke-miterlimit="10" cx="520" cy="360" r="7.5"/>
		<circle fill="none" stroke="#B4E2F0" stroke-width="6" stroke-miterlimit="10" cx="54" cy="119" r="9"/>
		<path fill="#B4E2F0" stroke="#B4E2F0" stroke-width="6" stroke-miterlimit="10" d="M130.5,372h-94c-1.9,0-3.5,1.6-3.5,3.5l0,0
			c0,1.9,1.6,3.5,3.5,3.5h94c1.9,0,3.5-1.6,3.5-3.5l0,0C134,373.6,132.4,372,130.5,372z"/>
		<path fill="#B4E2F0" stroke="#B4E2F0" stroke-width="6" stroke-miterlimit="10" d="M103.5,392h-94c-1.9,0-3.5,1.6-3.5,3.5l0,0
			c0,1.9,1.6,3.5,3.5,3.5h94c1.9,0,3.5-1.6,3.5-3.5l0,0C107,393.6,105.4,392,103.5,392z"/>
		<path fill="#B4E2F0" stroke="#B4E2F0" stroke-width="6" stroke-miterlimit="10" d="M121.5,340h-94c-1.9,0-3.5,1.6-3.5,3.5l0,0
			c0,1.9,1.6,3.5,3.5,3.5h94c1.9,0,3.5-1.6,3.5-3.5l0,0C125,341.6,123.4,340,121.5,340z"/>
		<path fill="#B4E2F0" stroke="#B4E2F0" stroke-width="6" stroke-miterlimit="10" d="M418.5,186h94c1.9,0,3.5-1.6,3.5-3.5l0,0
			c0-1.9-1.6-3.5-3.5-3.5h-94c-1.9,0-3.5,1.6-3.5,3.5l0,0C415,184.4,416.6,186,418.5,186z"/>
		<path fill="#B4E2F0" stroke="#B4E2F0" stroke-width="6" stroke-miterlimit="10" d="M461.5,166h94c1.9,0,3.5-1.6,3.5-3.5l0,0
			c0-1.9-1.6-3.5-3.5-3.5h-94c-1.9,0-3.5,1.6-3.5,3.5l0,0C458,164.4,459.6,166,461.5,166z"/>
		<path fill="#B4E2F0" stroke="#B4E2F0" stroke-width="6" stroke-miterlimit="10" d="M427.5,218h94c1.9,0,3.5-1.6,3.5-3.5l0,0
			c0-1.9-1.6-3.5-3.5-3.5h-94c-1.9,0-3.5,1.6-3.5,3.5l0,0C424,216.4,425.6,218,427.5,218z"/>
	</g>
	<g id="book">
		<path fill="#FFFFFF" d="M463.9,398.6H97.2c-6.1,0-11.2-5-11.2-11.2V162.2c0-6.1,5-11.2,11.2-11.2h366.7c6.1,0,11.2,5,11.2,11.2
			v225.3C475.1,393.6,470.1,398.6,463.9,398.6z"/>
		<g opacity="0.3">
			<path fill="#05A0D3" d="M105.1,408.9c-5.9,0-10.7-4.8-10.7-10.7V172.9c0-5.9,4.8-10.7,10.7-10.7h366.7c5.9,0,10.7,4.8,10.7,10.7
				v225.3c0,5.9-4.8,10.7-10.7,10.7H105.1z"/>
			<path fill="#05A0D3" d="M471.8,162.8c5.6,0,10.2,4.6,10.2,10.2v225.3c0,5.6-4.6,10.2-10.2,10.2H105.1c-5.6,0-10.2-4.6-10.2-10.2
				V172.9c0-5.6,4.6-10.2,10.2-10.2H471.8 M471.8,161.8H105.1c-6.1,0-11.2,5-11.2,11.2v225.3c0,6.1,5,11.2,11.2,11.2h366.7
				c6.1,0,11.2-5,11.2-11.2V172.9C483,166.8,478,161.8,471.8,161.8L471.8,161.8z"/>
		</g>
		<path fill="none" stroke="#002C47" stroke-width="7" stroke-miterlimit="10" d="M463.9,398.6H97.2c-6.1,0-11.2-5-11.2-11.2V162.2
			c0-6.1,5-11.2,11.2-11.2h366.7c6.1,0,11.2,5,11.2,11.2v225.3C475.1,393.6,470.1,398.6,463.9,398.6z"/>
		<path fill="#FFFFFF" stroke="#002C47" stroke-width="7" stroke-miterlimit="10" d="M444.9,392.8H115.2c-5.8,0-10.6-4.8-10.6-10.6
			V155.8c0-5.8,4.8-10.6,10.6-10.6h329.7c5.8,0,10.6,4.8,10.6,10.6v226.4C455.5,388.1,450.8,392.8,444.9,392.8z"/>
		<line fill="none" stroke="#002C47" stroke-width="7" stroke-miterlimit="10" x1="279.6" y1="146.9" x2="279.6" y2="401"/>
	</g>
	<g id="text">

			<line display="none" opacity="0.28" fill="#FFFFFF" stroke="#FFFFFF" stroke-width="7" stroke-miterlimit="10" x1="124.6" y1="230.7" x2="237" y2="231.2"/>

			<line display="none" opacity="0.28" fill="#FFFFFF" stroke="#FFFFFF" stroke-width="7" stroke-miterlimit="10" x1="133.9" y1="202.5" x2="234" y2="202.9"/>

			<line display="none" opacity="0.28" fill="#FFFFFF" stroke="#FFFFFF" stroke-width="7" stroke-miterlimit="10" x1="124.6" y1="259.3" x2="161.1" y2="259.5"/>
		<line fill="#FFFFFF" stroke="#002C47" stroke-width="7" stroke-miterlimit="10" x1="137.7" y1="196.2" x2="249.3" y2="196.7"/>
		<line fill="#FFFFFF" stroke="#002C47" stroke-width="7" stroke-miterlimit="10" x1="135.8" y1="178" x2="228.9" y2="178.4"/>
		<line fill="#FFFFFF" stroke="#002C47" stroke-width="7" stroke-miterlimit="10" x1="179.6" y1="269.6" x2="201.6" y2="269.7"/>
		<line fill="#FFFFFF" stroke="#002C47" stroke-width="7" stroke-miterlimit="10" x1="227.3" y1="214.4" x2="249.3" y2="214.5"/>
		<line fill="#FFFFFF" stroke="#002C47" stroke-width="7" stroke-miterlimit="10" x1="135.8" y1="269.6" x2="157.8" y2="269.7"/>
		<line fill="#FFFFFF" stroke="#002C47" stroke-width="7" stroke-miterlimit="10" x1="227.3" y1="336.2" x2="249.3" y2="336.3"/>
		<line fill="#FFFFFF" stroke="#002C47" stroke-width="7" stroke-miterlimit="10" x1="135.8" y1="318.8" x2="157.8" y2="318.9"/>
		<line fill="#FFFFFF" stroke="#002C47" stroke-width="7" stroke-miterlimit="10" x1="135.8" y1="337" x2="206.2" y2="337.3"/>
		<line fill="#FFFFFF" stroke="#002C47" stroke-width="7" stroke-miterlimit="10" x1="137.7" y1="233.3" x2="249.3" y2="232.8"/>
		<line fill="#FFFFFF" stroke="#002C47" stroke-width="7" stroke-miterlimit="10" x1="135.8" y1="300.7" x2="218.4" y2="300.3"/>
		<line fill="#FFFFFF" stroke="#002C47" stroke-width="7" stroke-miterlimit="10" x1="213.4" y1="269" x2="249.3" y2="268.9"/>
		<line fill="#FFFFFF" stroke="#002C47" stroke-width="7" stroke-miterlimit="10" x1="179.1" y1="214.6" x2="215" y2="214.4"/>
		<line fill="#FFFFFF" stroke="#002C47" stroke-width="7" stroke-miterlimit="10" x1="137" y1="251.5" x2="249.3" y2="251"/>
		<line fill="#FFFFFF" stroke="#002C47" stroke-width="7" stroke-miterlimit="10" x1="135.8" y1="355.7" x2="249.3" y2="355.2"/>
		<line fill="#FFFFFF" stroke="#002C47" stroke-width="7" stroke-miterlimit="10" x1="135.8" y1="214.6" x2="169.7" y2="214.4"/>
		<line fill="#FFFFFF" stroke="#002C47" stroke-width="7" stroke-miterlimit="10" x1="178.9" y1="318.4" x2="249.3" y2="318.7"/>
		<line fill="#FFFFFF" stroke="#002C47" stroke-width="7" stroke-miterlimit="10" x1="422.5" y1="196.2" x2="310.8" y2="196.7"/>
		<line fill="#FFFFFF" stroke="#002C47" stroke-width="7" stroke-miterlimit="10" x1="404" y1="178" x2="310.8" y2="178.4"/>
		<line fill="#FFFFFF" stroke="#002C47" stroke-width="7" stroke-miterlimit="10" x1="380.6" y1="269.6" x2="358.5" y2="269.7"/>
		<line fill="#FFFFFF" stroke="#002C47" stroke-width="7" stroke-miterlimit="10" x1="332.8" y1="214.4" x2="310.8" y2="214.5"/>
		<line fill="#FFFFFF" stroke="#002C47" stroke-width="7" stroke-miterlimit="10" x1="424.4" y1="269.6" x2="402.3" y2="269.7"/>
		<line fill="#FFFFFF" stroke="#002C47" stroke-width="7" stroke-miterlimit="10" x1="332.8" y1="336.2" x2="310.8" y2="336.3"/>
		<line fill="#FFFFFF" stroke="#002C47" stroke-width="7" stroke-miterlimit="10" x1="370.4" y1="335.6" x2="348.3" y2="335.7"/>
		<line fill="#FFFFFF" stroke="#002C47" stroke-width="7" stroke-miterlimit="10" x1="424.4" y1="337" x2="382.5" y2="337.2"/>
		<line fill="#FFFFFF" stroke="#002C47" stroke-width="7" stroke-miterlimit="10" x1="422.5" y1="233.3" x2="310.8" y2="232.8"/>
		<line fill="#FFFFFF" stroke="#002C47" stroke-width="7" stroke-miterlimit="10" x1="374.1" y1="300.6" x2="310.8" y2="300.3"/>
		<line fill="#FFFFFF" stroke="#002C47" stroke-width="7" stroke-miterlimit="10" x1="346.8" y1="269" x2="310.8" y2="268.9"/>
		<line fill="#FFFFFF" stroke="#002C47" stroke-width="7" stroke-miterlimit="10" x1="381.1" y1="214.6" x2="345.1" y2="214.4"/>
		<line fill="#FFFFFF" stroke="#002C47" stroke-width="7" stroke-miterlimit="10" x1="423.2" y1="251.5" x2="310.8" y2="251"/>
		<line fill="#FFFFFF" stroke="#002C47" stroke-width="7" stroke-miterlimit="10" x1="424.4" y1="355.7" x2="310.8" y2="355.2"/>
		<line fill="#FFFFFF" stroke="#002C47" stroke-width="7" stroke-miterlimit="10" x1="424.4" y1="214.6" x2="390.4" y2="214.4"/>
		<line fill="#FFFFFF" stroke="#002C47" stroke-width="7" stroke-miterlimit="10" x1="381.3" y1="318.4" x2="310.8" y2="318.7"/>
	</g>
	<g id="bookmark">
		<path fill="#FFFFFF" d="M425.7,264.6l0.1-123.8c0-5.1-4.2-9.3-9.3-9.3l-19.5,0c-5.1,0-9.3,4.2-9.3,9.3l-0.1,126.6l20.5-16.7
			L425.7,264.6z"/>
		<g opacity="0.3">
			<path fill="#05A0D3" d="M396.5,147.3c0-4.9,4-8.8,8.8-8.8l19.6,0c2.3,0,4.6,0.9,6.2,2.6c1.7,1.7,2.6,3.9,2.6,6.2l-0.1,122.8
				l-17.2-13.6l-20,16.3L396.5,147.3z"/>
			<path fill="#05A0D3" d="M405.3,139l19.5,0c4.6,0,8.3,3.7,8.3,8.3l-0.1,121.7L417,256.4l-0.6-0.5l-0.6,0.5l-18.9,15.4l0.1-124.5
				C397,142.7,400.7,139,405.3,139L405.3,139 M405.3,138c-5.1,0-9.3,4.2-9.3,9.3l-0.1,126.6l20.5-16.7l17.7,14l0.1-123.8
				c0-5.1-4.2-9.3-9.3-9.3L405.3,138C405.3,138,405.3,138,405.3,138L405.3,138z"/>
		</g>
		<path fill="none" stroke="#002C47" stroke-width="7" stroke-linecap="round" stroke-linejoin="round" stroke-miterlimit="10" d="
			M425.7,264.6l0.1-123.8c0-5.1-4.2-9.3-9.3-9.3l-19.5,0c-5.1,0-9.3,4.2-9.3,9.3l-0.1,126.6l20.5-16.7L425.7,264.6z"/>
	</g>
</g>

</svg>
