<?xml version="1.0" encoding="utf-8"?>
<!-- Generator: Adobe Illustrator 22.0.1, SVG Export Plug-In . SVG Version: 6.00 Build 0)  -->
<svg version="1.1" xmlns="http://www.w3.org/2000/svg" xmlns:xlink="http://www.w3.org/1999/xlink" x="0px" y="0px"
	 viewBox="0 0 564 562" enable-background="new 0 0 564 562" width="200" height="100" xml:space="preserve" role="img" aria-labelledby="title  desc">
	 <title id="developer_icon">Developer Icon</title>
  	 <desc id="desc">Cbrain website Developer icon.</desc>
<g id="developer_x5F_02">
	<g id="background_copy">
		<path fill="#B4E2F0" stroke="#B4E2F0" stroke-width="6" stroke-miterlimit="10" d="M8.5,170h436c1.9,0,3.5,1.6,3.5,3.5l0,0
			c0,1.9-1.6,3.5-3.5,3.5H8.5c-1.9,0-3.5-1.6-3.5-3.5l0,0C5,171.6,6.6,170,8.5,170z"/>
		<path fill="#B4E2F0" stroke="#B4E2F0" stroke-width="6" stroke-miterlimit="10" d="M119.5,295h436c1.9,0,3.5,1.6,3.5,3.5l0,0
			c0,1.9-1.6,3.5-3.5,3.5h-436c-1.9,0-3.5-1.6-3.5-3.5l0,0C116,296.6,117.6,295,119.5,295z"/>
		<path fill="#B4E2F0" stroke="#B4E2F0" stroke-width="6" stroke-miterlimit="10" d="M11.5,444h436c1.9,0,3.5,1.6,3.5,3.5l0,0
			c0,1.9-1.6,3.5-3.5,3.5h-436c-1.9,0-3.5-1.6-3.5-3.5l0,0C8,445.6,9.6,444,11.5,444z"/>
		<circle fill="none" stroke="#B4E2F0" stroke-width="6" stroke-miterlimit="10" cx="495" cy="127" r="10"/>
		<circle fill="none" stroke="#B4E2F0" stroke-width="6" stroke-miterlimit="10" cx="47" cy="244" r="8"/>
		<circle fill="none" stroke="#B4E2F0" stroke-width="6" stroke-miterlimit="10" cx="503" cy="375" r="12"/>
	</g>
	<g id="computer_copy">
		<path fill="#FFFFFF" d="M444.4,378.1h-325c-4,0-7.2-3.3-7.2-7.2V129.2c0-4,3.3-7.2,7.2-7.2h325c4,0,7.2,3.3,7.2,7.2v241.7
			C451.6,374.9,448.3,378.1,444.4,378.1z"/>
		<g opacity="0.3">
			<path fill="#05A0D3" d="M122.3,387.4c-3.5,0-6.4-2.9-6.4-6.4v-33.4c0-3.5,2.9-6.4,6.4-6.4h326.9c3.5,0,6.4,2.9,6.4,6.4V381
				c0,3.5-2.9,6.4-6.4,6.4H122.3z"/>
			<path fill="#05A0D3" d="M449.3,341.7c3.3,0,5.9,2.6,5.9,5.9V381c0,3.3-2.6,5.9-5.9,5.9H122.3c-3.3,0-5.9-2.6-5.9-5.9v-33.4
				c0-3.3,2.6-5.9,5.9-5.9H449.3 M449.3,340.7H122.3c-3.8,0-6.9,3.1-6.9,6.9V381c0,3.8,3.1,6.9,6.9,6.9h326.9c3.8,0,6.9-3.1,6.9-6.9
				v-33.4C456.2,343.8,453.1,340.7,449.3,340.7L449.3,340.7z"/>
		</g>
		<path fill="none" stroke="#002C47" stroke-width="7" stroke-miterlimit="10" d="M444.4,378.1h-325c-4,0-7.2-3.3-7.2-7.2V129.2
			c0-4,3.3-7.2,7.2-7.2h325c4,0,7.2,3.3,7.2,7.2v241.7C451.6,374.9,448.3,378.1,444.4,378.1z"/>
		<path fill="#002C47" stroke="#002C47" stroke-miterlimit="10" d="M417.4,411.3h-271c-4,0-7.2-3.3-7.2-7.2v-1c0-4,3.3-7.2,7.2-7.2
			h271c4,0,7.2,3.3,7.2,7.2v1C424.6,408.1,421.3,411.3,417.4,411.3z"/>
		<line fill="none" stroke="#002C47" stroke-width="7" stroke-miterlimit="10" x1="112.1" y1="330.3" x2="451.6" y2="330.3"/>
	</g>
	<g id="file">
		<path fill="#FFFFFF" stroke="#FFFFFF" stroke-miterlimit="10" d="M211.6,290.5v-107c0-5.6,4.5-10.2,10-10.2
			c17.1,0,39.3-0.7,56.4,0c12.8,0.5,11,5,20.6,13.4l63.1,0.8c5.5,0,10,4.6,10,10.2v12"/>
		<path opacity="0.3" fill="#05A0D3" stroke="#05A0D3" stroke-miterlimit="10" d="M211.6,290.5v-107c0-5.6,4.5-10.2,10-10.2
			c17.1,0,39.3-0.7,56.4,0c12.8,0.5,11,5,20.6,13.4l63.1,0.8c5.5,0,10,4.6,10,10.2v12"/>
		<path fill="none" stroke="#002C47" stroke-width="7" stroke-linecap="round" stroke-linejoin="round" stroke-miterlimit="10" d="
			M365.8,201.3v-12c0-5.6-4.5-10.2-10-10.2l-63.1-0.8c-9.6-8.4-7.8-12.9-20.6-13.4c-17.1-0.7-39.3,0-56.4,0c-5.5,0-10,4.6-10,10.2
			v107c0,0,2.4,1.7,13.1,7.2"/>
		<g>
			<path fill="#FFFFFF" d="M228,298.8c-4.8,0-8.7-4.3-8.7-9.5l19.2-72.9v-0.1c0-5.3,3.9-9.6,8.7-9.6h135c4.8,0,8.7,4.3,8.7,9.5
				l-19.2,72.9v0.1c0,5.3-3.9,9.6-8.7,9.6H228z"/>
			<g>
				<path fill="#FFFFFF" d="M382.3,207.3c4.5,0,8.1,4,8.2,8.9L371.3,289l0,0.1v0.1c0,5-3.7,9.1-8.2,9.1H228c-4.5,0-8.1-4-8.2-8.9
					l19.1-72.8l0-0.1v-0.1c0-5,3.7-9.1,8.2-9.1H382.3 M382.3,206.3h-135c-5.1,0-9.2,4.5-9.2,10.1l-19.2,72.9
					c0,5.5,4.1,10.1,9.2,10.1h135c5.1,0,9.2-4.5,9.2-10.1l19.2-72.9C391.5,210.8,387.3,206.3,382.3,206.3L382.3,206.3z"/>
			</g>
		</g>
		<g>
			<path fill="#002C47" d="M375.6,207.4c0.9,0,1.9,1,2.1,2.4l-18.9,71.8c-0.2,0.6-0.2,1.2-0.2,1.8c0,1.7-1.2,3.1-2.2,3.1h-135
				c-0.9,0-1.9-1-2.1-2.4l18.9-71.8c0.2-0.6,0.2-1.2,0.2-1.8c0-1.7,1.2-3.1,2.2-3.1H375.6 M375.6,200.4h-135
				c-5.1,0-9.2,4.5-9.2,10.1l-19.2,72.9c0,5.5,4.1,10.1,9.2,10.1h135c5.1,0,9.2-4.5,9.2-10.1l19.2-72.9
				C384.8,204.9,380.6,200.4,375.6,200.4L375.6,200.4z"/>
		</g>
	</g>
	<g id="download_copy">
		<circle fill="#FFFFFF" stroke="#FFFFFF" stroke-width="6" stroke-miterlimit="10" cx="295.3" cy="241.8" r="42.9"/>
		<circle fill="#B4E2F0" stroke="#B4E2F0" stroke-width="6" stroke-miterlimit="10" cx="303.6" cy="259.2" r="40.9"/>
		<circle fill="none" stroke="#002C47" stroke-width="7" stroke-miterlimit="10" cx="298.1" cy="250" r="42.9"/>

			<polyline fill="none" stroke="#002C47" stroke-width="14" stroke-linecap="round" stroke-linejoin="round" stroke-miterlimit="10" points="
			282.4,258 295.2,267.7 315.3,233.3 		"/>

			<polyline fill="none" stroke="#FFFFFF" stroke-width="5" stroke-linecap="round" stroke-linejoin="round" stroke-miterlimit="10" points="
			282.4,258.3 295.2,268 315.2,233.5 		"/>
	</g>
</g>


</svg>
