<?xml version="1.0" encoding="utf-8"?>
<!-- Generator: Adobe Illustrator 22.0.1, SVG Export Plug-In . SVG Version: 6.00 Build 0)  -->
<svg version="1.1" id="accessibility_x5F_icon" xmlns="http://www.w3.org/2000/svg" xmlns:xlink="http://www.w3.org/1999/xlink"
	 x="0px" y="0px" viewBox="-20 0 150 42.3"  width="200" height="100" xml:space="preserve">
<g id="background_x5F_bars">
	
		<line fill="none" stroke="#D7F6FC" stroke-width="7" stroke-linecap="round" stroke-miterlimit="10" x1="23.5" y1="3.8" x2="96" y2="3.8"/>
	
		<line fill="none" stroke="#D7F6FC" stroke-width="7" stroke-linecap="round" stroke-miterlimit="10" x1="3.5" y1="24.8" x2="76" y2="24.8"/>
	
		<line fill="none" stroke="#D7F6FC" stroke-width="7" stroke-linecap="round" stroke-miterlimit="10" x1="15.5" y1="38.8" x2="88" y2="38.8"/>
</g>
<g id="circles">
	<circle fill="#FFD8E6" cx="12.5" cy="7.8" r="1.5"/>
	<circle fill="#15CDFF" cx="7" cy="17.3" r="1"/>
	<circle fill="#FFCF66" cx="90.5" cy="19.8" r="1.5"/>
</g>
<g id="desktop">
	<path fill="#FFFFFF" stroke="#002C47" stroke-miterlimit="10" d="M67.3,35.9h-45c-0.6,0-1-0.5-1-1V1.5c0-0.6,0.4-1,1-1h45
		c0.5,0,1,0.4,1,1v33.4C68.3,35.5,67.8,35.9,67.3,35.9z"/>
	<path fill="#002C47" stroke="#002C47" stroke-miterlimit="10" d="M63.6,40.5H26.1c-0.5,0-1-0.5-1-1v-0.1c0-0.5,0.5-1,1-1h37.5
		c0.5,0,1,0.5,1,1v0.1C64.6,40.1,64.1,40.5,63.6,40.5z"/>
	<line fill="none" stroke="#002C47" stroke-miterlimit="10" x1="21.3" y1="29.3" x2="68.3" y2="29.3"/>
	<path fill="none" stroke="#002C47" stroke-miterlimit="10" d="M47.1,6.5H24.5c-0.5,0-1-0.4-1-1V4.9c0-0.5,0.5-1,1-1h22.6
		c0.6,0,1,0.5,1,1v0.5C48.1,6,47.6,6.5,47.1,6.5z"/>
	<circle fill="#002C47" stroke="#002C47" stroke-width="0.5" stroke-miterlimit="10" cx="28.9" cy="5.2" r="0.3"/>
	<circle fill="#002C47" stroke="#002C47" stroke-width="0.5" stroke-miterlimit="10" cx="27.1" cy="5.2" r="0.3"/>
	<circle fill="#002C47" stroke="#002C47" stroke-width="0.5" stroke-miterlimit="10" cx="25.2" cy="5.2" r="0.3"/>
	<path fill="none" stroke="#002C47" stroke-miterlimit="10" d="M42.8,25.2H24.7c-0.7,0-1.2-0.7-1.2-1.5V5"/>
	<line fill="none" stroke="#002C47" stroke-width="0.75" stroke-miterlimit="10" x1="48.1" y1="5.3" x2="48" y2="8.8"/>
	<rect x="26.1" y="10.3" fill="#15CDFF" width="15.1" height="0.8"/>
	<rect x="26.1" y="14.4" fill="#15CDFF" width="15.1" height="0.8"/>
	<rect x="26.1" y="18.6" fill="#15CDFF" width="15.1" height="0.8"/>
	<path fill="none" stroke="#002C47" stroke-miterlimit="10" d="M66,11.5v14.5c0,0.7-0.5,1.3-1.1,1.3H44.2c-0.6,0-1.1-0.6-1.1-1.3V10
		"/>
	<path fill="none" stroke="#002C47" stroke-miterlimit="10" d="M65.3,11.5H44c-0.6,0-1-0.4-1-1v-1c0-0.6,0.4-1,1-1h21.3
		c0.5,0,1,0.4,1,1v1C66.3,11.1,65.9,11.5,65.3,11.5z"/>
	<circle stroke="#002C47" stroke-width="0.5" stroke-miterlimit="10" cx="44.9" cy="10" r="0.3"/>
	<circle stroke="#002C47" stroke-width="0.5" stroke-miterlimit="10" cx="47.7" cy="10" r="0.3"/>
	<circle stroke="#002C47" stroke-width="0.5" stroke-miterlimit="10" cx="46.3" cy="10" r="0.3"/>
	<polyline fill="none" stroke="#15CDFF" stroke-miterlimit="10" points="46.4,18.7 48.7,17.2 46.4,15.7 	"/>
	<rect x="51.3" y="19.3" fill="none" stroke="#15CDFF" stroke-miterlimit="10" width="2.3" height="0.4"/>
</g>
<g id="mobile">
	<path fill="#FFFFFF" stroke="#002C47" stroke-miterlimit="10" d="M83.4,41.8h-10c-1.1,0-2-0.9-2-2v-23c0-1.1,0.9-2,2-2h10
		c1.1,0,2,0.9,2,2v23C85.4,40.9,84.5,41.8,83.4,41.8z"/>
	<line fill="none" stroke="#002C47" stroke-miterlimit="10" x1="71.3" y1="18.8" x2="85.5" y2="18.8"/>
	<line fill="none" stroke="#002C47" stroke-width="0.5" stroke-miterlimit="10" x1="76.7" y1="16.8" x2="80.2" y2="16.8"/>
	<line fill="none" stroke="#002C47" stroke-miterlimit="10" x1="71.3" y1="36.8" x2="85.5" y2="36.8"/>
	<circle fill="none" stroke="#002C47" stroke-width="0.5" stroke-miterlimit="10" cx="78.4" cy="39.8" r="1"/>
	<rect x="74.1" y="27.3" fill="#15CDFF" width="8.9" height="0.5"/>
	<rect x="74.1" y="30.1" fill="#15CDFF" width="8.9" height="0.5"/>
	<rect x="74.1" y="32.9" fill="#15CDFF" width="8.9" height="0.5"/>
	<circle fill="#15CDFF" cx="80" cy="23.3" r="2.5"/>
</g>
</svg>
