<?xml version="1.0" encoding="utf-8"?>
<!-- Generator: Adobe Illustrator 22.0.1, SVG Export Plug-In . SVG Version: 6.00 Build 0)  -->
<svg version="1.1" xmlns="http://www.w3.org/2000/svg" xmlns:xlink="http://www.w3.org/1999/xlink" x="0px" y="0px"
enable-background="new 0 0 77 50.5" viewBox="-20 0 120 42.3"  width="200" height="100"  xml:space="preserve"
role="img" aria-labelledby="title  desc">
	<title id="title">Efficiency</title>
  	<desc id="desc">Cbrain website efficiency icon.</desc>
	<g id="efficiency_x5F_icon">
		<g id="background_x5F_bars_1_">

				<line fill="none" stroke="#D7F6FC" stroke-width="5" stroke-linecap="round" stroke-miterlimit="10" x1="22.5" y1="7.5" x2="74.5" y2="7.5"/>

				<line fill="none" stroke="#D7F6FC" stroke-width="5" stroke-linecap="round" stroke-miterlimit="10" x1="26" y1="27.5" x2="40" y2="27.5"/>

				<line fill="none" stroke="#D7F6FC" stroke-width="5" stroke-linecap="round" stroke-miterlimit="10" x1="2.5" y1="18.4" x2="39.5" y2="18.4"/>
		</g>
		<g id="circles_1_">
			<circle fill="#FFD8E6" cx="63.5" cy="27" r="1"/>
			<circle fill="#15CDFF" cx="69" cy="14.5" r="1.5"/>
			<circle fill="#FFCF66" cx="19" cy="26.5" r="1.5"/>
		</g>
		<g id="faucet">
			<line fill="none" stroke="#002C47" stroke-miterlimit="10" x1="49.2" y1="0.5" x2="62" y2="0.5"/>
			<line fill="none" stroke="#002C47" stroke-miterlimit="10" x1="55.6" y1="0.6" x2="55.6" y2="6.1"/>
			<path fill="#FFFFFF" stroke="#002C47" stroke-miterlimit="10" d="M67.8,11H43.4c-0.9,0-1.7-0.8-1.7-1.7V6.5c0-0.9,0.8-1.7,1.7-1.7
				h24.4c0.9,0,1.7,0.8,1.7,1.7v2.8C69.5,10.3,68.7,11,67.8,11z"/>
			<path fill="#FFFFFF" stroke="#002C47" stroke-miterlimit="10" d="M59.3,19.6h-7.4c-0.6,0-1.1-0.5-1.1-1.1V8.2
				c0-0.6,0.5-1.1,1.1-1.1h7.4c0.6,0,1.1,0.5,1.1,1.1v10.2C60.4,19.1,59.9,19.6,59.3,19.6z"/>
			<path fill="#FFFFFF" stroke="#002C47" stroke-miterlimit="10" d="M62.8,20.3c0,0,1.1-4.1-1.1-5.1l-12.2,0c-2.2,1-1.1,5.1-1.1,5.1
				L62.8,20.3L62.8,20.3z"/>
			<line fill="none" stroke="#15CDFF" stroke-width="0.5" stroke-miterlimit="10" x1="51.7" y1="36.6" x2="51.7" y2="22.7"/>
			<line fill="none" stroke="#15CDFF" stroke-width="0.5" stroke-miterlimit="10" x1="55.5" y1="22.7" x2="55.5" y2="41"/>
			<line fill="none" stroke="#15CDFF" stroke-width="0.5" stroke-miterlimit="10" x1="59.3" y1="22.7" x2="59.3" y2="49.4"/>
			<circle fill="#FFFFFF" stroke="#15CDFF" stroke-miterlimit="10" cx="51.7" cy="36.8" r="1.7"/>
			<circle fill="#FFFFFF" stroke="#15CDFF" stroke-miterlimit="10" cx="55.5" cy="41.7" r="1.7"/>
			<circle fill="#FFFFFF" stroke="#15CDFF" stroke-miterlimit="10" cx="55.5" cy="29.3" r="1.7"/>
			<circle fill="#FFFFFF" stroke="#15CDFF" stroke-miterlimit="10" cx="59.3" cy="48.3" r="1.7"/>
			<circle fill="#FFFFFF" stroke="#15CDFF" stroke-miterlimit="10" cx="59.3" cy="34.9" r="1.7"/>
		</g>
	</g>

</svg>
