<?xml version="1.0" encoding="utf-8"?>
<!-- Generator: Adobe Illustrator 24.1.3, SVG Export Plug-In . SVG Version: 6.00 Build 0)  -->
<svg version="1.1" id="Layer_3" xmlns="http://www.w3.org/2000/svg" xmlns:xlink="http://www.w3.org/1999/xlink" x="0px" y="0px"
	 viewBox="0 0 47.5 34.5" enable-background="new 0 0 47.5 34.5" xml:space="preserve">
<path fill="#F4F3F6" d="M28.8,10.2c0.7,0.9,2.1,1.2,4.6,0.4c1.6-0.5,3.5-1.1,4.9-0.3c1.2,0.7,1.6,2.2,1.2,3.5
	c-1.2,4.9-6.9,16.9-13.8,15.6c-1.8-0.3-3.5-1.6-3.7-3.3c-0.2-1.4,0.6-2.8,1-4.2c0.6-2.1,0.2-4.2-0.2-6.3c-0.4-2.1-0.7-4.3-0.1-6.3
	S25,5.2,27.3,5c0.3,0,0.7,0,0.9,0.2c0.3,0.3,0.2,0.7,0.2,1C28.1,8,28.1,9.4,28.8,10.2z"/>
<path fill="none" stroke="#371C7D" stroke-width="0.6" stroke-linecap="round" stroke-linejoin="round" stroke-miterlimit="10" d="
	M15.9,5c0,0-1-2.4-3.6-1.8C12.3,3.3,13.3,6.3,15.9,5z"/>
<path fill="none" stroke="#371C7D" stroke-width="0.6" stroke-linecap="round" stroke-linejoin="round" stroke-miterlimit="10" d="
	M13,7.3c0,0,2.3,1.1,3.8-1.1C16.9,6.2,14.1,4.6,13,7.3z"/>
<path fill="none" stroke="#371C7D" stroke-width="0.6" stroke-linecap="round" stroke-linejoin="round" stroke-miterlimit="10" d="
	M14.8,9.7c0,0,2.6,0.1,3-2.6C17.9,7.1,14.7,6.8,14.8,9.7z"/>
<path fill="none" stroke="#371C7D" stroke-width="0.6" stroke-linecap="round" stroke-linejoin="round" stroke-miterlimit="10" d="
	M22.9,15.3c-0.5-2.2-2-6.1-7-9.6"/>
<path fill="none" stroke="#371C7D" stroke-width="0.6" stroke-linecap="round" stroke-linejoin="round" stroke-miterlimit="10" d="
	M16.7,11.4c0,0,2.4-0.9,1.8-3.6C18.6,7.9,15.5,8.8,16.7,11.4z"/>
<path fill="none" stroke="#371C7D" stroke-width="0.6" stroke-linecap="round" stroke-linejoin="round" stroke-miterlimit="10" d="
	M18.6,13.2c0,0,2-1.1,1-4.1C19.5,9.1,16.9,10.2,18.6,13.2z"/>
<path fill="none" stroke="#371C7D" stroke-width="0.6" stroke-linecap="round" stroke-linejoin="round" stroke-miterlimit="10" d="
	M20,14.9c0,0,2-1.7,0.5-4C20.5,10.9,17.9,12.9,20,14.9z"/>
<path fill="none" stroke="#371C7D" stroke-width="0.6" stroke-linecap="round" stroke-linejoin="round" stroke-miterlimit="10" d="
	M18.3,2.6c0,0,0.8,2.5-1.6,3.7C16.7,6.3,15.5,3.3,18.3,2.6z"/>
<path fill="none" stroke="#371C7D" stroke-width="0.6" stroke-linecap="round" stroke-linejoin="round" stroke-miterlimit="10" d="
	M20.4,4.6c0,0-0.3,2.6-3,2.7C17.5,7.3,17.6,4.2,20.4,4.6z"/>
<path fill="none" stroke="#371C7D" stroke-width="0.6" stroke-linecap="round" stroke-linejoin="round" stroke-miterlimit="10" d="
	M21.9,6.8c0,0-1.2,2.3-3.8,1.4C18.2,8.1,19.5,5.2,21.9,6.8z"/>
<path fill="none" stroke="#371C7D" stroke-width="0.6" stroke-linecap="round" stroke-linejoin="round" stroke-miterlimit="10" d="
	M23.5,8.8c0,0-1.3,1.9-4.2,0.4C19.3,9.2,20.7,6.8,23.5,8.8z"/>
<path fill="none" stroke="#371C7D" stroke-width="0.6" stroke-linecap="round" stroke-linejoin="round" stroke-miterlimit="10" d="
	M24.6,11.4c0,0-1.8,1.4-4.2-0.7C20.4,10.6,22.5,8.7,24.6,11.4z"/>
<path fill="none" stroke="#371C7D" stroke-width="0.6" stroke-linecap="round" stroke-linejoin="round" stroke-miterlimit="10" d="
	M28.2,4.8c0,0,4.2-2.8,2-3.2C30.2,1.6,29.2,1,28.2,4.8z"/>
<path fill="none" stroke="#371C7D" stroke-width="0.6" stroke-linecap="round" stroke-linejoin="round" stroke-miterlimit="10" d="
	M28.4,4.7c0,0,0-5-1.6-3.4C26.8,1.2,25.8,1.8,28.4,4.7z"/>
<path fill="none" stroke="#371C7D" stroke-width="0.6" stroke-linecap="round" stroke-linejoin="round" stroke-miterlimit="10" d="
	M27.6,4.7c0,0,4.6,2,3.8-0.1C31.4,4.7,31.3,3.5,27.6,4.7z"/>
<path opacity="0.5" fill="none" stroke="#371C7D" stroke-width="0.5" stroke-linecap="round" stroke-linejoin="round" stroke-miterlimit="10" d="
	M34.2,5.2c0,0,3.3,1.4,2.7,0C36.9,5.1,36.9,4.3,34.2,5.2z"/>
<path opacity="0.25" fill="none" stroke="#371C7D" stroke-width="0.5" stroke-linecap="round" stroke-linejoin="round" stroke-miterlimit="10" d="
	M13.4,11.3c0,0-2.6,2.9-2.6,1.2C10.8,12.5,10.5,11.7,13.4,11.3z"/>
<path fill="none" stroke="#371C7D" stroke-width="0.6" stroke-linecap="round" stroke-linejoin="round" stroke-miterlimit="10" d="
	M28.2,4.5c0,0-4.1,2.9-1.9,3.3C26.3,7.8,27.3,8.3,28.2,4.5z"/>
<path fill="none" stroke="#371C7D" stroke-width="0.6" stroke-linecap="round" stroke-linejoin="round" stroke-miterlimit="10" d="
	M28.1,4.4c0,0,0.1,5,1.6,3.4C29.7,7.8,30.7,7.3,28.1,4.4z"/>
<path fill="none" stroke="#371C7D" stroke-width="0.6" stroke-linecap="round" stroke-linejoin="round" stroke-miterlimit="10" d="
	M28.4,4.8c0,0-4.4-2.5-3.8-0.3C24.6,4.5,24.6,5.7,28.4,4.8z"/>
<path fill="none" stroke="#371C7D" stroke-width="0.6" stroke-linecap="round" stroke-linejoin="round" stroke-miterlimit="10" d="
	M26.7,14.3c0.7-3.2,1.3-6.2,1.1-7.8"/>
<path fill="none" stroke="#371C7D" stroke-linecap="round" stroke-linejoin="round" stroke-miterlimit="10" d="M36.8,19.6
	c-1.3-1.7-3.5-2.1-5.3-0.9l-0.9,0.7l0.2,1.7l1.5-1.3c1.1-0.8,2.5-0.6,3.3,0.6c0.8,1.1,0.7,2.7-0.4,3.5l-3.9,2.8l0.2,1.7l4.4-3.3
	C37.6,23.8,38,21.3,36.8,19.6z"/>
<path fill="none" stroke="#371C7D" stroke-linecap="round" stroke-linejoin="round" stroke-miterlimit="10" d="M30.8,33.4h-13
	c-0.5,0-0.9-0.4-0.9-0.9l1.2-15.4c0-0.5,0.4-0.9,0.9-0.9h10.5c0.5,0,0.9,0.4,0.9,0.9l1.2,15.4C31.7,33,31.3,33.4,30.8,33.4z"/>
<path fill="#FFFFFF" stroke="#371C7D" stroke-linecap="round" stroke-linejoin="round" stroke-miterlimit="10" d="M17.5,25.1
	l-5.3-4.1l-0.4-1.4c-0.2-0.2-0.4,0-0.7,0.3l-1.7,1.7C9.2,22,9,22.2,9.2,22.4l1.5,0.4l0.1-0.1l6.3,7.4L17.5,25.1z"/>
</svg>
