<?xml version="1.0" encoding="utf-8"?>
<!-- Generator: Adobe Illustrator 24.1.3, SVG Export Plug-In . SVG Version: 6.00 Build 0)  -->
<svg version="1.1" id="Layer_2" xmlns="http://www.w3.org/2000/svg" xmlns:xlink="http://www.w3.org/1999/xlink" x="0px" y="0px"
	 viewBox="0 0 47.5 34.5" enable-background="new 0 0 47.5 34.5" xml:space="preserve">
<circle opacity="0.25" fill="none" stroke="#371C7D" stroke-width="0.8" stroke-linecap="round" stroke-linejoin="round" stroke-miterlimit="10" cx="39" cy="9.8" r="1.2"/>
<path fill="#F4F3F6" d="M24.5,30.7c2-1,3.4-2.8,5.2-4.1c1.8-1.3,3.8-2.1,5.7-3.1s3.7-3,3.2-5.1c-0.5-2.2-3.1-3.2-4.2-5.2
	c-1.1-1.9-0.6-4.4-1.5-6.4c-1-2.2-3.7-3.4-6.1-3C23.3,4.3,22,8,19.1,9.6c-2.6,1.4-5.7,1-7.3,4c-1,1.8-0.8,4.2,0.8,5.5
	c1.4,1.1,2.6,1.7,3.5,3.4c0.7,1.4,0.9,3,1.1,4.5c0.5,3.2,4.1,5.1,7,3.8C24.4,30.8,24.5,30.7,24.5,30.7z"/>
<path fill="none" stroke="#371C7D" stroke-linecap="round" stroke-linejoin="round" stroke-miterlimit="10" d="M21.3,21.5
	c-0.4,1,0.2,2.3,0.9,3.1c1.1,1.4,2.5,3.9,0.2,5C21.6,30.1,20.8,30,20,30c-3-0.3-6.2-1.1-8.7-2.7c-2.2-1.4-4-3.7-4.1-6.4
	c-0.2-3.2,2.1-6.3,5-7.7c3.5-1.7,7.6-1.9,11.3-1.1c2.3,0.5,9.5,2.2,6.6,5.8c-0.7,0.9-1.8,1.3-2.8,1.5c-1.1,0.2-2.2,0.2-3.2,0.4
	c-0.9,0.2-1.8,0.5-2.4,1.1C21.4,21.2,21.3,21.4,21.3,21.5z"/>
<circle fill="#FFFFFF" stroke="#371C7D" stroke-linecap="round" stroke-linejoin="round" stroke-miterlimit="10" cx="12.4" cy="18.7" r="1.9"/>
<circle fill="none" stroke="#371C7D" stroke-linecap="round" stroke-linejoin="round" stroke-miterlimit="10" cx="18.7" cy="16" r="1.9"/>
<circle fill="#FFFFFF" stroke="#371C7D" stroke-linecap="round" stroke-linejoin="round" stroke-miterlimit="10" cx="15.4" cy="24.5" r="1.9"/>
<circle opacity="0.5" fill="none" stroke="#371C7D" stroke-width="0.8" stroke-linecap="round" stroke-linejoin="round" stroke-miterlimit="10" cx="12.8" cy="5.8" r="1.2"/>
<path fill="#FFFFFF" stroke="#371C7D" stroke-miterlimit="10" d="M24.3,28.9L24.3,28.9c-0.5-0.1-0.8-0.5-0.7-1l1.6-14.8
	c0.1-0.5,1.5-0.6,2-0.5l0,0c0.5,0.1,1.8,0.7,1.7,1.1l-3.6,14.4C25.2,28.7,24.8,29,24.3,28.9z"/>
<path fill="#FFFFFF" stroke="#371C7D" stroke-linecap="round" stroke-linejoin="round" stroke-miterlimit="10" d="M28.1,6.4
	c-1.4,0.8-2.7,2.1-2.9,3.6c-0.2,1.4,0.9,3,2.9,2.4c2.4-0.7,0.6-2.5,0-3.8C27.8,8,28.3,6.8,28.1,6.4z"/>
</svg>
