<?xml version="1.0" encoding="utf-8"?>
<!-- Generator: Adobe Illustrator 24.1.3, SVG Export Plug-In . SVG Version: 6.00 Build 0)  -->
<svg version="1.1" id="Layer_1" xmlns="http://www.w3.org/2000/svg" xmlns:xlink="http://www.w3.org/1999/xlink" x="0px" y="0px"
	 viewBox="0 0 47.5 34.5" enable-background="new 0 0 47.5 34.5" xml:space="preserve">
<path fill="#F4F3F6" d="M2.5,12.7C0,10.4,2.6,6.7,8,6.2c2.9-0.3,6,0.1,8.7,0.7c9,1.9,30.7,10.9,23.5,16.5c-2.2,1.7-6.3,2.1-10.1,2.3
	c-6.1,0.7-19,1.6-23-1.6c-1.1-0.9-1.1-2-0.7-3c0.5-1.2,3.7-3,3.7-4.1c0-1.2-4.1-2.5-5.9-3.3c-0.5-0.2-1.1-0.5-1.5-0.8
	C2.6,12.8,2.5,12.8,2.5,12.7z"/>
<path fill="none" stroke="#371C7D" stroke-miterlimit="10" d="M34.1,23.4H14.8c-0.6,0-1-0.5-1-1V8c0-0.5,0.4-1,1-1h19.3
	c0.5,0,1,0.5,1,1v14.4C35.1,22.9,34.6,23.4,34.1,23.4z"/>
<path fill="none" stroke="#371C7D" stroke-linecap="round" stroke-linejoin="round" stroke-miterlimit="10" d="M35.6,25.6H13.2
	c-0.6,0-1-0.5-1-1V5.8c0-0.5,0.4-1,1-1h22.4c0.5,0,1,0.5,1,1v18.8C36.6,25.1,36.2,25.6,35.6,25.6z"/>
<path fill="#FFFFFF" stroke="#371C7D" stroke-linecap="round" stroke-linejoin="round" stroke-miterlimit="10" d="M33.6,9.1
	c0-0.4-0.3-0.7-0.7-0.7"/>
<line fill="#FFFFFF" stroke="#371C7D" stroke-width="0.6" stroke-linecap="round" stroke-miterlimit="10" x1="24.4" y1="11.8" x2="31.9" y2="11.8"/>
<line fill="#FFFFFF" stroke="#371C7D" stroke-width="0.6" stroke-linecap="round" stroke-miterlimit="10" x1="19.6" y1="11.8" x2="22.1" y2="11.8"/>
<polyline fill="none" stroke="#371C7D" stroke-width="0.6" stroke-linecap="round" stroke-linejoin="round" stroke-miterlimit="10" points="
	16.4,11.1 17.6,11.8 16.4,12.5 "/>
<line fill="#FFFFFF" stroke="#371C7D" stroke-width="0.8" stroke-linecap="round" stroke-miterlimit="10" x1="24.4" y1="15.4" x2="31.9" y2="15.4"/>
<line fill="#FFFFFF" stroke="#371C7D" stroke-width="0.8" stroke-linecap="round" stroke-miterlimit="10" x1="19.6" y1="15.4" x2="22.1" y2="15.4"/>
<polyline fill="none" stroke="#371C7D" stroke-width="0.8" stroke-linecap="round" stroke-linejoin="round" stroke-miterlimit="10" points="
	16.4,14.7 17.6,15.5 16.4,16.1 "/>
<line fill="#FFFFFF" stroke="#371C7D" stroke-linecap="round" stroke-miterlimit="10" x1="24.4" y1="19.1" x2="31.9" y2="19.1"/>
<line fill="#FFFFFF" stroke="#371C7D" stroke-linecap="round" stroke-miterlimit="10" x1="19.6" y1="19.1" x2="22.1" y2="19.1"/>
<polyline fill="none" stroke="#371C7D" stroke-linecap="round" stroke-linejoin="round" stroke-miterlimit="10" points="16.4,18.4 
	17.6,19.1 16.4,19.8 "/>
<path fill="none" stroke="#371C7D" stroke-linecap="round" stroke-linejoin="round" stroke-miterlimit="10" d="M36.6,32.3h-24
	c-0.6,0-1-0.4-1-1v0c0-0.6,0.4-1,1-1h24c0.5,0,1,0.4,1,1v0C37.6,31.9,37.1,32.3,36.6,32.3z"/>
<line fill="none" stroke="#371C7D" stroke-linecap="round" stroke-linejoin="round" stroke-miterlimit="10" x1="12.5" y1="28.6" x2="14.7" y2="28.6"/>
<line fill="none" stroke="#371C7D" stroke-linecap="round" stroke-linejoin="round" stroke-miterlimit="10" x1="16.5" y1="28.6" x2="23.4" y2="28.6"/>
<line fill="none" stroke="#371C7D" stroke-linecap="round" stroke-linejoin="round" stroke-miterlimit="10" x1="25.2" y1="28.6" x2="27.4" y2="28.6"/>
<line fill="none" stroke="#371C7D" stroke-linecap="round" stroke-linejoin="round" stroke-miterlimit="10" x1="29.5" y1="28.6" x2="31.7" y2="28.6"/>
<line fill="none" stroke="#371C7D" stroke-linecap="round" stroke-linejoin="round" stroke-miterlimit="10" x1="33.9" y1="28.6" x2="36.1" y2="28.6"/>
<rect x="0.3" y="0.3" display="none" fill="none" stroke="#371C7D" stroke-width="0.6" stroke-linecap="round" stroke-linejoin="round" stroke-miterlimit="10" width="46.9" height="33.9"/>
</svg>
